<?xml version="1.0" encoding="UTF-8"?>
<svg version="1.1" xmlns="http://www.w3.org/2000/svg" width="277" height="182">
<path d="M0 0 C2.10433112 -0.00966509 4.20766615 -0.0407472 6.31176758 -0.07226562 C20.21569242 -0.18197781 33.1177403 1.58262502 43.69262695 11.31445312 C53.82655854 22.00827044 54.92339471 33.07839767 54.71606445 47.20117188 C54.27770651 58.93869651 49.20957764 68.89049687 40.8137207 76.99023438 C25.28170011 89.79004485 2.88341955 88.83604096 -16.02612305 87.59179688 C-19.5612793 87.24023438 -19.5612793 87.24023438 -21.5612793 86.24023438 C-21.5612793 58.19023438 -21.5612793 30.14023437 -21.5612793 1.24023438 C-14.29232546 0.33161515 -7.29391574 0.02017913 0 0 Z M-1.5612793 16.24023438 C-1.5612793 34.39023438 -1.5612793 52.54023438 -1.5612793 71.24023438 C8.61159106 72.3705533 16.02195847 72.22908443 24.4387207 66.24023438 C30.54723127 60.70799839 33.08162597 54.80311155 33.7199707 46.64648438 C33.92939314 37.92054962 33.19003005 31.08253883 28.8762207 23.49023438 C21.5384683 16.71692447 13.13022863 15.14072318 3.48950195 15.10742188 C1.23771246 15.16598346 1.23771246 15.16598346 -1.5612793 16.24023438 Z " fill="#690E32" transform="translate(114.561279296875,-0.240234375)"/>
<path d="M0 0 C6.6 0 13.2 0 20 0 C20.01458252 1.6492749 20.02916504 3.2985498 20.04418945 4.99780273 C20.10235414 11.14254966 20.17958667 17.28693711 20.26245117 23.43139648 C20.29722663 26.08605803 20.32367187 28.74042896 20.34643555 31.39526367 C20.38013789 35.22083852 20.43246396 39.0457853 20.48828125 42.87109375 C20.49467117 44.04957382 20.5010611 45.22805389 20.50764465 46.44224548 C20.64950118 54.47227774 21.40213392 61.33242436 26.125 68 C30.04518191 70.72708306 33.27060166 71.25147744 38 71 C41.53544819 70.13062749 43.9001566 69.43836968 46.16609192 66.47499084 C49.47515962 60.35006374 49.58616397 54.73158853 49.57421875 47.87109375 C49.58838333 46.72262466 49.60254791 45.57415558 49.61714172 44.3908844 C49.65887949 40.73966007 49.67424661 37.08892872 49.6875 33.4375 C49.71664182 29.78273095 49.75127908 26.12808368 49.78999329 22.47340393 C49.81231831 20.20518002 49.82823561 17.93688131 49.83683777 15.66856384 C49.87305604 10.34095185 50.06670487 5.24891144 51 0 C54.14581423 -0.02888514 57.29159469 -0.04675923 60.4375 -0.0625 C61.33533203 -0.07087891 62.23316406 -0.07925781 63.15820312 -0.08789062 C64.01220703 -0.09111328 64.86621094 -0.09433594 65.74609375 -0.09765625 C66.53685303 -0.10289307 67.3276123 -0.10812988 68.14233398 -0.11352539 C70 -0 70 -0 71 1 C71.10377731 2.5628179 71.13852041 4.130288 71.14526367 5.6965332 C71.15164352 6.69880447 71.15802338 7.70107574 71.16459656 8.73371887 C71.16570938 9.82834946 71.1668222 10.92298004 71.16796875 12.05078125 C71.17296135 13.73726021 71.17296135 13.73726021 71.17805481 15.45780945 C71.18313318 17.84955434 71.18546286 20.24130636 71.18530273 22.63305664 C71.1874679 26.25874951 71.20555442 29.88412754 71.22460938 33.50976562 C71.22754754 35.83593646 71.2295295 38.16210874 71.23046875 40.48828125 C71.23765427 41.56064529 71.24483978 42.63300934 71.25224304 43.73786926 C71.2147211 56.38423719 69.78919018 68.91144328 61.3671875 78.9453125 C52.69137099 86.97548685 42.17940969 88.41283886 30.796875 88.2109375 C22.13551506 87.72975084 15.23724659 85.11652569 9 79 C0.26962142 69.02242448 -0.45629959 56.86991386 -0.29296875 44.140625 C-0.28872391 42.87023376 -0.28447906 41.59984253 -0.28010559 40.29095459 C-0.26627912 36.95683694 -0.23945564 33.6233684 -0.20599365 30.28942871 C-0.17498692 26.87009203 -0.16153575 23.45068755 -0.14648438 20.03125 C-0.11360292 13.3539687 -0.06191883 6.67707261 0 0 Z " fill="#6A0E32" transform="translate(194,0)"/>
<path d="M0 0 C17.49 0 34.98 0 53 0 C53 5.61 53 11.22 53 17 C42.11 17 31.22 17 20 17 C20 22.61 20 28.22 20 34 C30.23 34 40.46 34 51 34 C51 39.28 51 44.56 51 50 C40.77 50 30.54 50 20 50 C20 56.6 20 63.2 20 70 C31.55 70 43.1 70 55 70 C55 75.28 55 80.56 55 86 C53.31987658 87.68012342 51.24912808 87.12747339 48.9453125 87.12939453 C47.32858643 87.13412277 47.32858643 87.13412277 45.67919922 87.13894653 C44.50631348 87.1369223 43.33342773 87.13489807 42.125 87.1328125 C40.9302002 87.13376923 39.73540039 87.13472595 38.50439453 87.13571167 C35.9723302 87.13639371 33.44026412 87.13453778 30.90820312 87.13037109 C27.0168874 87.12502321 23.12568711 87.13031533 19.234375 87.13671875 C16.78124974 87.13605797 14.32812456 87.13477682 11.875 87.1328125 C10.70211426 87.13483673 9.52922852 87.13686096 8.32080078 87.13894653 C7.2429834 87.13579437 6.16516602 87.13264221 5.0546875 87.12939453 C4.10062012 87.12859894 3.14655273 87.12780334 2.16357422 87.12698364 C0 87 0 87 -1 86 C-1.10029345 83.64405611 -1.13618686 81.31742047 -1.12939453 78.9609375 C-1.13114685 78.22422318 -1.13289917 77.48750885 -1.13470459 76.72846985 C-1.1391277 74.27728968 -1.13618113 71.82618099 -1.1328125 69.375 C-1.13348599 67.67163072 -1.13445638 65.96826153 -1.13571167 64.26489258 C-1.13718973 60.6835845 -1.13503277 57.10230129 -1.13037109 53.52099609 C-1.1247082 48.94932036 -1.12793012 44.37770378 -1.13394356 39.80603027 C-1.13757582 36.28167281 -1.13639779 32.7573291 -1.13381577 29.23297119 C-1.13315205 27.54901116 -1.13395535 25.86504985 -1.13629532 24.18109131 C-1.1388618 21.81210078 -1.13492408 19.44320249 -1.12939453 17.07421875 C-1.13141876 16.38814041 -1.13344299 15.70206207 -1.13552856 14.99519348 C-1.11359739 9.87124915 -0.57449745 5.17047705 0 0 Z " fill="#6A0E32" transform="translate(13,0)"/>
<path d="M0 0 C91.41 0 182.82 0 277 0 C277 1.32 277 2.64 277 4 C185.59 4 94.18 4 0 4 C0 2.68 0 1.36 0 0 Z " fill="#050505" transform="translate(0,103)"/>
<path d="M0 0 C14 0 14 0 19 3 C22.68288011 10.23876435 23.31118799 17.65587169 20.8125 25.4375 C19 29 19 29 14 32 C9.38 32 4.76 32 0 32 C0 21.44 0 10.88 0 0 Z M8 8 C8 13.28 8 18.56 8 24 C9.65 23.67 11.3 23.34 13 23 C14.16297973 20.67404054 14.16600691 19.21276769 14.1875 16.625 C14.20167969 15.85414063 14.21585938 15.08328125 14.23046875 14.2890625 C13.97801607 11.78165112 13.25193467 10.16738098 12 8 C10.68 8 9.36 8 8 8 Z " fill="#550B27" transform="translate(141,121)"/>
<path d="M0 0 C6.6 0 13.2 0 20 0 C20 2.31 20 4.62 20 7 C16.04 7 12.08 7 8 7 C8 8.65 8 10.3 8 12 C11.63 12 15.26 12 19 12 C19 14.31 19 16.62 19 19 C15.37 19 11.74 19 8 19 C8 20.65 8 22.3 8 24 C11.96 24 15.92 24 20 24 C20 26.64 20 29.28 20 32 C13.4 32 6.8 32 0 32 C0 21.44 0 10.88 0 0 Z " fill="#6A0E31" transform="translate(2,121)"/>
<path d="M0 0 C-1 1 -1 1 -3.5625 1.0625 C-4.7690625 1.0315625 -4.7690625 1.0315625 -6 1 C-6.33 1.66 -6.66 2.32 -7 3 C-7.99 2.67 -8.98 2.34 -10 2 C-10 29.06 -10 56.12 -10 84 C21.80502075 85.1928136 21.80502075 85.1928136 50 73 C58.92195191 64.07804809 61.91420555 52.04059009 62.03125 39.70703125 C61.66884607 32.12372896 60.16817497 24.93411879 57 18 C56.34 17.67 55.68 17.34 55 17 C54.566875 16.236875 54.13375 15.47375 53.6875 14.6875 C50.05848456 8.9079569 44.27634046 6.20964795 38 4 C37.01 4 36.02 4 35 4 C35 3.34 35 2.68 35 2 C34.36191406 1.95101563 33.72382813 1.90203125 33.06640625 1.8515625 C32.24011719 1.77679688 31.41382813 1.70203125 30.5625 1.625 C29.73878906 1.55539062 28.91507813 1.48578125 28.06640625 1.4140625 C27.04353516 1.20910156 27.04353516 1.20910156 26 1 C25.505 0.01 25.505 0.01 25 -1 C36.48801755 0.07468551 47.44493652 3.06453815 55.46875 11.875 C64.26640536 24.08399111 65.08088375 36.45666491 64 51 C62.03501834 61.53230172 56.59595238 70.62336429 48.33203125 77.43359375 C31.5415605 88.71161514 9.30470957 87.91980537 -10 86 C-10.66 85.67 -11.32 85.34 -12 85 C-12 56.95 -12 28.9 -12 0 C-3 -1.125 -3 -1.125 0 0 Z " fill="#4F0A23" transform="translate(105,1)"/>
<path d="M0 0 C1.65 0.33 3.3 0.66 5 1 C3.68 1.33 2.36 1.66 1 2 C1 29.39 1 56.78 1 85 C18.16 85 35.32 85 53 85 C53 80.71 53 76.42 53 72 C51.46291382 72.00785522 51.46291382 72.00785522 49.89477539 72.01586914 C46.10604724 72.03391969 42.31732291 72.0454322 38.52856445 72.05493164 C36.88630536 72.05997174 35.24405077 72.06680378 33.60180664 72.07543945 C31.24624521 72.08751926 28.89074291 72.09323139 26.53515625 72.09765625 C25.79660904 72.10281754 25.05806183 72.10797882 24.2971344 72.11329651 C22.53101912 72.1134925 20.76502854 72.06194719 19 72 C17.37799485 70.37799485 17.8700925 68.57976969 17.8671875 66.34375 C17.86525391 64.93416016 17.86525391 64.93416016 17.86328125 63.49609375 C17.86714844 62.50738281 17.87101562 61.51867188 17.875 60.5 C17.86919922 59.01693359 17.86919922 59.01693359 17.86328125 57.50390625 C17.86457031 56.56417969 17.86585937 55.62445313 17.8671875 54.65625 C17.86831543 53.78806641 17.86944336 52.91988281 17.87060547 52.02539062 C18 50 18 50 19 49 C20.99958364 48.95919217 23.00045254 48.95745644 25 49 C25 49.33 25 49.66 25 50 C23.35 50 21.7 50 20 50 C20 56.6 20 63.2 20 70 C31.55 70 43.1 70 55 70 C55 75.28 55 80.56 55 86 C53.31987658 87.68012342 51.24912808 87.12747339 48.9453125 87.12939453 C47.32858643 87.13412277 47.32858643 87.13412277 45.67919922 87.13894653 C44.50631348 87.1369223 43.33342773 87.13489807 42.125 87.1328125 C40.9302002 87.13376923 39.73540039 87.13472595 38.50439453 87.13571167 C35.9723302 87.13639371 33.44026412 87.13453778 30.90820312 87.13037109 C27.0168874 87.12502321 23.12568711 87.13031533 19.234375 87.13671875 C16.78124974 87.13605797 14.32812456 87.13477682 11.875 87.1328125 C10.70211426 87.13483673 9.52922852 87.13686096 8.32080078 87.13894653 C7.2429834 87.13579437 6.16516602 87.13264221 5.0546875 87.12939453 C4.10062012 87.12859894 3.14655273 87.12780334 2.16357422 87.12698364 C0 87 0 87 -1 86 C-1.10029345 83.64405611 -1.13618686 81.31742047 -1.12939453 78.9609375 C-1.13114685 78.22422318 -1.13289917 77.48750885 -1.13470459 76.72846985 C-1.1391277 74.27728968 -1.13618113 71.82618099 -1.1328125 69.375 C-1.13348599 67.67163072 -1.13445638 65.96826153 -1.13571167 64.26489258 C-1.13718973 60.6835845 -1.13503277 57.10230129 -1.13037109 53.52099609 C-1.1247082 48.94932036 -1.12793012 44.37770378 -1.13394356 39.80603027 C-1.13757582 36.28167281 -1.13639779 32.7573291 -1.13381577 29.23297119 C-1.13315205 27.54901116 -1.13395535 25.86504985 -1.13629532 24.18109131 C-1.15386229 7.96588943 -1.15386229 7.96588943 0 0 Z " fill="#4F041A" transform="translate(13,0)"/>
<path d="M0 0 C6.6 0 13.2 0 20 0 C20.01458252 1.6492749 20.02916504 3.2985498 20.04418945 4.99780273 C20.10235414 11.14254966 20.17958667 17.28693711 20.26245117 23.43139648 C20.29722663 26.08605803 20.32367187 28.74042896 20.34643555 31.39526367 C20.38013789 35.22083852 20.43246396 39.0457853 20.48828125 42.87109375 C20.49467117 44.04957382 20.5010611 45.22805389 20.50764465 46.44224548 C20.65037704 54.52185694 21.18921179 61.62705415 26.5 68 C28.90534258 70.16050606 28.90534258 70.16050606 32 71 C32 71.66 32 72.32 32 73 C25.50322399 71.48912186 23.05989031 67.95800025 19.37675476 62.66902161 C17.77159203 59.55720086 17.6366447 57.59336086 17.65942383 54.1081543 C17.65965042 52.94732834 17.65987701 51.78650238 17.66011047 50.59049988 C17.67559433 49.34762711 17.69107819 48.10475433 17.70703125 46.82421875 C17.71127609 45.54392288 17.71552094 44.26362701 17.71989441 42.9445343 C17.73130863 39.55286867 17.76074545 36.16159293 17.79400635 32.77008057 C17.82478165 29.30445631 17.83841561 25.83876861 17.85351562 22.37304688 C17.88657819 15.58184089 17.93835843 8.79100429 18 2 C12.72 2 7.44 2 2 2 C2.06317105 9.40706786 2.13879342 16.81376475 2.23571491 24.22047329 C2.28024578 27.66054838 2.31953845 31.10050975 2.34643555 34.54077148 C2.37766967 38.50529653 2.43245104 42.46933596 2.48828125 46.43359375 C2.49786613 48.2669352 2.49786613 48.2669352 2.50764465 50.13731384 C2.62531209 57.03611003 3.4781489 62.59747997 6 69 C6.37229359 70.65839874 6.7293569 72.32201275 7 74 C7.66 74 8.32 74 9 74 C9.37125 74.7425 9.7425 75.485 10.125 76.25 C13.20417807 80.76612783 17.93508296 82.31169432 23 84 C24.485 84.495 24.485 84.495 26 85 C27.62719482 85.08143855 29.25751719 85.1075302 30.88671875 85.09765625 C31.82451172 85.09443359 32.76230469 85.09121094 33.72851562 85.08789062 C34.70498047 85.07951172 35.68144531 85.07113281 36.6875 85.0625 C37.67556641 85.05798828 38.66363281 85.05347656 39.68164062 85.04882812 C42.12115474 85.03704303 44.56054689 85.02059011 47 85 C47 85.66 47 86.32 47 87 C36.4460921 89.49273253 24.39803225 89.14396061 14.82421875 83.78125 C6.58661656 78.19643496 2.83575923 70.84620751 0.59335327 61.35876465 C-0.42071663 55.61847078 -0.36756261 49.95414283 -0.29296875 44.140625 C-0.28872391 42.87023376 -0.28447906 41.59984253 -0.28010559 40.29095459 C-0.26627912 36.95683694 -0.23945564 33.6233684 -0.20599365 30.28942871 C-0.17498692 26.87009203 -0.16153575 23.45068755 -0.14648438 20.03125 C-0.11360292 13.3539687 -0.06191883 6.67707261 0 0 Z " fill="#590824" transform="translate(194,0)"/>
<path d="M0 0 C5.61 0 11.22 0 17 0 C17 2.31 17 4.62 17 7 C13.7 7 10.4 7 7 7 C7 7.99 7 8.98 7 10 C9.97 10 12.94 10 16 10 C16 12.31 16 14.62 16 17 C13.03 17 10.06 17 7 17 C7 18.32 7 19.64 7 21 C10.3 21 13.6 21 17 21 C17 23.31 17 25.62 17 28 C11.39 28 5.78 28 0 28 C0 18.76 0 9.52 0 0 Z " fill="#510923" transform="translate(175,125)"/>
<path d="M0 0 C2.4375 1.125 2.4375 1.125 4 3 C4.75 6.1875 4.75 6.1875 5 9 C3.35 9.33 1.7 9.66 0 10 C0.804375 10.53625 1.60875 11.0725 2.4375 11.625 C5 14 5 14 5.9375 16.9375 C6.02068645 21.01363624 5.11984345 23.5068754 2.6875 26.75 C0.40198193 28.44297635 -1.15878262 28.80177553 -4 29 C-7.76726002 28.246548 -9.47470916 27.6653684 -11.875 24.625 C-13 22 -13 22 -13 18 C-11.02 18 -9.04 18 -7 18 C-6.67 19.32 -6.34 20.64 -6 22 C-4.68 21.67 -3.36 21.34 -2 21 C-2.66085901 17.93798073 -2.66085901 17.93798073 -4.8125 16.90234375 C-5.8953125 16.42474609 -5.8953125 16.42474609 -7 15.9375 C-10.8978186 14.2043628 -10.8978186 14.2043628 -12 12 C-12.56872038 4.9478673 -12.56872038 4.9478673 -10.5 1.5 C-6.96334376 -0.62199374 -4.02426388 -0.66933342 0 0 Z M-6 6 C-5.67 6.99 -5.34 7.98 -5 9 C-4.01 9 -3.02 9 -2 9 C-2 8.01 -2 7.02 -2 6 C-3.32 6 -4.64 6 -6 6 Z " fill="#600C29" transform="translate(76,125)"/>
<path d="M0 0 C1.134375 0.020625 2.26875 0.04125 3.4375 0.0625 C4.61297401 3.97657837 5.77634223 7.89415293 6.9375 11.8125 C7.27136719 12.92367187 7.60523437 14.03484375 7.94921875 15.1796875 C8.26503906 16.24960938 8.58085938 17.31953125 8.90625 18.421875 C9.19951172 19.40639648 9.49277344 20.39091797 9.79492188 21.40527344 C10.4375 24.0625 10.4375 24.0625 10.4375 28.0625 C8.1275 28.0625 5.8175 28.0625 3.4375 28.0625 C3.4375 26.7425 3.4375 25.4225 3.4375 24.0625 C1.1275 24.0625 -1.1825 24.0625 -3.5625 24.0625 C-3.8925 25.3825 -4.2225 26.7025 -4.5625 28.0625 C-6.8725 28.0625 -9.1825 28.0625 -11.5625 28.0625 C-10.58831666 24.23445663 -9.60963196 20.40759603 -8.62670898 16.58178711 C-8.29277733 15.27937242 -7.96009068 13.97663788 -7.62866211 12.67358398 C-7.15283219 10.80369333 -6.6721924 8.9350287 -6.19140625 7.06640625 C-5.90338135 5.94049072 -5.61535645 4.8145752 -5.31860352 3.65454102 C-4.27444143 0.0749902 -4.27444143 0.0749902 0 0 Z M-0.5625 10.0625 C-0.8925 12.3725 -1.2225 14.6825 -1.5625 17.0625 C-0.5725 17.0625 0.4175 17.0625 1.4375 17.0625 C1.1075 14.7525 0.7775 12.4425 0.4375 10.0625 C0.1075 10.0625 -0.2225 10.0625 -0.5625 10.0625 Z " fill="#6A0E30" transform="translate(43.5625,124.9375)"/>
<path d="M0 0 C2.31 0 4.62 0 7 0 C9.23323459 5.72389159 11.07184275 11.44929638 12.6875 17.375 C12.91244141 18.18066406 13.13738281 18.98632812 13.36914062 19.81640625 C15 25.73508739 15 25.73508739 15 28 C12.69 28 10.38 28 8 28 C7.67 26.68 7.34 25.36 7 24 C4.69 24 2.38 24 0 24 C0 25.32 0 26.64 0 28 C-2.31 28 -4.62 28 -7 28 C-5.608547 18.38443671 -2.84480623 9.26190729 0 0 Z M3 10 C2.67 12.31 2.34 14.62 2 17 C2.99 17 3.98 17 5 17 C4.67 14.69 4.34 12.38 4 10 C3.67 10 3.34 10 3 10 Z " fill="#660D2E" transform="translate(260,125)"/>
<path d="M0 0 C15.18 0 30.36 0 46 0 C46 5.61 46 11.22 46 17 C35.11 17 24.22 17 13 17 C13 22.61 13 28.22 13 34 C23.23 34 33.46 34 44 34 C44 39.28 44 44.56 44 50 C35.75 50 27.5 50 19 50 C19 49.67 19 49.34 19 49 C26.26 48.67 33.52 48.34 41 48 C41.33 44.04 41.66 40.08 42 36 C39.39738281 36.14308594 39.39738281 36.14308594 36.7421875 36.2890625 C34.45315425 36.40163791 32.16408999 36.51358412 29.875 36.625 C28.73289062 36.68945312 27.59078125 36.75390625 26.4140625 36.8203125 C25.30546875 36.871875 24.196875 36.9234375 23.0546875 36.9765625 C22.03874512 37.02893066 21.02280273 37.08129883 19.97607422 37.13525391 C16.67516814 36.98523734 14.07455194 36.17450289 11 35 C10.97111486 31.85418577 10.95324077 28.70840531 10.9375 25.5625 C10.92912109 24.66466797 10.92074219 23.76683594 10.91210938 22.84179688 C10.90888672 21.98779297 10.90566406 21.13378906 10.90234375 20.25390625 C10.89710693 19.46314697 10.89187012 18.6723877 10.88647461 17.85766602 C11 16 11 16 12 15 C14.3756852 14.9116033 16.72208674 14.88469695 19.09765625 14.90234375 C20.16094398 14.90446617 20.16094398 14.90446617 21.24571228 14.90663147 C23.51801712 14.91224557 25.79022475 14.92480037 28.0625 14.9375 C29.59960796 14.94251319 31.13671745 14.94707641 32.67382812 14.95117188 C36.44925642 14.96221958 40.22461171 14.97949359 44 15 C44 10.71 44 6.42 44 2 C29.48 2 14.96 2 0 2 C0 1.34 0 0.68 0 0 Z " fill="#570723" transform="translate(20,0)"/>
<path d="M0 0 C3.14581423 -0.02888514 6.29159469 -0.04675923 9.4375 -0.0625 C10.33533203 -0.07087891 11.23316406 -0.07925781 12.15820312 -0.08789062 C13.01220703 -0.09111328 13.86621094 -0.09433594 14.74609375 -0.09765625 C15.93223267 -0.10551147 15.93223267 -0.10551147 17.14233398 -0.11352539 C19 0 19 0 20 1 C20.10377731 2.5628179 20.13852041 4.130288 20.14526367 5.6965332 C20.15164352 6.69880447 20.15802338 7.70107574 20.16459656 8.73371887 C20.16570938 9.82834946 20.1668222 10.92298004 20.16796875 12.05078125 C20.17296135 13.73726021 20.17296135 13.73726021 20.17805481 15.45780945 C20.18313318 17.84955434 20.18546286 20.24130636 20.18530273 22.63305664 C20.1874679 26.25874951 20.20555442 29.88412754 20.22460938 33.50976562 C20.22754754 35.83593646 20.2295295 38.16210874 20.23046875 40.48828125 C20.23765427 41.56064529 20.24483978 42.63300934 20.25224304 43.73786926 C20.22403621 53.24467868 19.64680763 62.93436423 15.1875 71.5 C14.70667969 72.4590625 14.22585938 73.418125 13.73046875 74.40625 C11.82346847 77.26459805 9.77542137 79.00207358 7 81 C8.28185151 78.30633968 9.72329989 75.9351254 11.4375 73.5 C17.0334886 64.51193335 17.45396294 54.11099747 17.51171875 43.796875 C17.52966995 42.5930719 17.54762115 41.3892688 17.56611633 40.14898682 C17.6197786 36.34935892 17.6539733 32.5498534 17.6875 28.75 C17.72071196 26.15493104 17.75520513 23.55987815 17.79101562 20.96484375 C17.87547962 14.64331813 17.94249997 8.32182604 18 2 C12.39 2 6.78 2 1 2 C1.33 2.99 1.66 3.98 2 5 C2.0797659 6.71664422 2.09991196 8.43635166 2.08520508 10.15478516 C2.07801956 11.20662994 2.07083405 12.25847473 2.06343079 13.3421936 C2.04894394 14.47966034 2.03445709 15.61712708 2.01953125 16.7890625 C2.00540695 17.96205902 1.99128265 19.13505554 1.97673035 20.34359741 C1.94358702 22.8301828 1.90722767 25.31672707 1.86791992 27.80322266 C1.8130236 31.58889213 1.78423794 35.37420828 1.75585938 39.16015625 C1.7203764 41.57814941 1.68331708 43.99612006 1.64453125 46.4140625 C1.64016556 47.53938385 1.63579987 48.6647052 1.63130188 49.8241272 C1.45979946 57.82704656 0.25465874 64.48145001 -5.3125 70.5 C-8.555686 72.31015033 -11.32076241 72.71143235 -15 73 C-13 71 -13 71 -9.625 69.875 C-5.73954678 68.23172372 -4.53762282 66.21270721 -2.8008728 62.46438599 C-1.25024696 57.69291593 -1.41711966 52.84570227 -1.42578125 47.87109375 C-1.40453438 46.14839012 -1.40453438 46.14839012 -1.38285828 44.3908844 C-1.34112051 40.73966007 -1.32575339 37.08892872 -1.3125 33.4375 C-1.28335818 29.78273095 -1.24872092 26.12808368 -1.21000671 22.47340393 C-1.18768169 20.20518002 -1.17176439 17.93688131 -1.16316223 15.66856384 C-1.12694396 10.34095185 -0.93329513 5.24891144 0 0 Z " fill="#4C0519" transform="translate(245,0)"/>
<path d="M0 0 C6.27 0 12.54 0 19 0 C19 2.64 19 5.28 19 8 C17.02 8 15.04 8 13 8 C13 14.6 13 21.2 13 28 C10.69 28 8.38 28 6 28 C6 21.4 6 14.8 6 8 C4.02 8 2.04 8 0 8 C0 5.36 0 2.72 0 0 Z " fill="#4E0A23" transform="translate(227,125)"/>
<path d="M0 0 C6.27 0 12.54 0 19 0 C19 2.64 19 5.28 19 8 C17.02 8 15.04 8 13 8 C13 14.6 13 21.2 13 28 C10.69 28 8.38 28 6 28 C6 21.4 6 14.8 6 8 C4.02 8 2.04 8 0 8 C0 5.36 0 2.72 0 0 Z " fill="#4C0C24" transform="translate(91,125)"/>
<path d="M0 0 C2.31 0 4.62 0 7 0 C7 6.93 7 13.86 7 21 C9.97 21 12.94 21 16 21 C17 25 17 25 16 28 C10.72 28 5.44 28 0 28 C0 18.76 0 9.52 0 0 Z " fill="#500C24" transform="translate(203,125)"/>
<path d="M0 0 C2.45073447 2.53242562 2.64446687 4.47950303 2.875 7.9375 C1.885 7.6075 0.895 7.2775 -0.125 6.9375 C-0.455 7.5975 -0.785 8.2575 -1.125 8.9375 C-1.516875 8.2775 -1.90875 7.6175 -2.3125 6.9375 C-2.910625 6.2775 -3.50875 5.6175 -4.125 4.9375 C-5.775 4.9375 -7.425 4.9375 -9.125 4.9375 C-9.455 10.8775 -9.785 16.8175 -10.125 22.9375 C-3.63912983 23.65170206 -3.63912983 23.65170206 -1.1875 21.4375 C-0.836875 20.9425 -0.48625 20.4475 -0.125 19.9375 C-0.125 20.5975 -0.125 21.2575 -0.125 21.9375 C0.535 21.9375 1.195 21.9375 1.875 21.9375 C1.545 23.5875 1.215 25.2375 0.875 26.9375 C-4.71274372 28.91649257 -8.25724828 28.81155052 -14.125 27.9375 C-14.32119224 23.64618391 -14.50548583 19.35443898 -14.6875 15.0625 C-14.74357422 13.83917969 -14.79964844 12.61585938 -14.85742188 11.35546875 C-14.90576172 10.18886719 -14.95410156 9.02226562 -15.00390625 7.8203125 C-15.0510376 6.74152832 -15.09816895 5.66274414 -15.14672852 4.55126953 C-15.125 1.9375 -15.125 1.9375 -14.125 -0.0625 C-9.3120392 -1.1365332 -4.69277618 -1.5955439 0 0 Z " fill="#6B0D32" transform="translate(157.125,123.0625)"/>
<path d="M0 0 C6.6 0 13.2 0 20 0 C20 2.31 20 4.62 20 7 C16.04 7 12.08 7 8 7 C8 6.67 8 6.34 8 6 C11.3 6 14.6 6 18 6 C18 4.68 18 3.36 18 2 C16.51886719 2.01740234 16.51886719 2.01740234 15.0078125 2.03515625 C13.72648438 2.04417969 12.44515625 2.05320312 11.125 2.0625 C9.84882813 2.07410156 8.57265625 2.08570312 7.2578125 2.09765625 C4 2 4 2 2 1 C2 10.57 2 20.14 2 30 C8.435 29.505 8.435 29.505 15 29 C15.99 29.33 16.98 29.66 18 30 C17.67 28.68 17.34 27.36 17 26 C16.37351562 26.01160156 15.74703125 26.02320313 15.1015625 26.03515625 C14.28429688 26.04417969 13.46703125 26.05320313 12.625 26.0625 C11.81289062 26.07410156 11.00078125 26.08570313 10.1640625 26.09765625 C8 26 8 26 6 25 C5.95758277 22.66705225 5.95907063 20.33297433 6 18 C7 17 7 17 9.28515625 16.90234375 C10.65994141 16.91974609 10.65994141 16.91974609 12.0625 16.9375 C12.98160156 16.94652344 13.90070312 16.95554688 14.84765625 16.96484375 C15.55792969 16.97644531 16.26820312 16.98804688 17 17 C17 15.68 17 14.36 17 13 C15.68 12.67 14.36 12.34 13 12 C14.98 12 16.96 12 19 12 C19 14.31 19 16.62 19 19 C15.37 19 11.74 19 8 19 C8 20.65 8 22.3 8 24 C11.96 24 15.92 24 20 24 C20 26.64 20 29.28 20 32 C13.4 32 6.8 32 0 32 C0 21.44 0 10.88 0 0 Z " fill="#540823" transform="translate(2,121)"/>
<path d="M0 0 C1.58294782 -0.05437607 3.16644256 -0.09296271 4.75 -0.125 C5.63171875 -0.14820313 6.5134375 -0.17140625 7.421875 -0.1953125 C10.1135858 0.00860498 11.69904974 0.63448279 14 2 C14.12857143 7.65714286 14.12857143 7.65714286 13.25 10 C12.82646968 13.38824254 15.0462346 15.39497947 17 18 C14.25 18.375 14.25 18.375 11 18 C8.625 15 8.625 15 7 12 C7.33 13.98 7.66 15.96 8 18 C5.36 18 2.72 18 0 18 C0.33 17.34 0.66 16.68 1 16 C1.23029956 13.62876754 1.41119942 11.25258057 1.5625 8.875 C1.64628906 7.59367188 1.73007813 6.31234375 1.81640625 4.9921875 C1.90728516 3.51105469 1.90728516 3.51105469 2 2 C1.34 2 0.68 2 0 2 C0 1.34 0 0.68 0 0 Z M6 2 C6 4.31 6 6.62 6 9 C7.32 8.67 8.64 8.34 10 8 C10 6.35 10 4.7 10 3 C8.68 2.67 7.36 2.34 6 2 Z " fill="#030303" transform="translate(144,164)"/>
<path d="M0 0 C4.62 0 9.24 0 14 0 C13.67 0.99 13.34 1.98 13 3 C9.94152152 3.54372951 7.11227195 4 4 4 C4 5.65 4 7.3 4 9 C7.3 9.33 10.6 9.66 14 10 C14 10.99 14 11.98 14 13 C10.7 13.33 7.4 13.66 4 14 C3.61781233 15.65614657 3.28604898 17.32457024 3 19 C4.66342837 20.66342837 6.7825709 20.36048097 9.0625 20.5625 C9.98160156 20.64628906 10.90070313 20.73007813 11.84765625 20.81640625 C12.91306641 20.90728516 12.91306641 20.90728516 14 21 C14 21.99 14 22.98 14 24 C9.71 24 5.42 24 1 24 C0.12229718 21.36689153 -0.30951078 19.17324224 -0.625 16.4375 C-0.72039062 15.65246094 -0.81578125 14.86742187 -0.9140625 14.05859375 C-1 12 -1 12 0 10 C0.06996014 8.29297265 0.08440154 6.58331997 0.0625 4.875 C0.041875 3.26625 0.02125 1.6575 0 0 Z " fill="#6A0E31" transform="translate(177,127)"/>
<path d="M0 0 C0.66 0 1.32 0 2 0 C2 18.15 2 36.3 2 55 C15.05317208 55 22.96048103 53.51837973 33 45 C30.91845651 49.31176866 29.39783997 51.93851252 25 54 C24.34 54.66 23.68 55.32 23 56 C18.23929876 57.12772233 13.54874129 57.15153999 8.6875 57.125 C7.59598633 57.13080078 7.59598633 57.13080078 6.48242188 57.13671875 C1.12673611 57.12673611 1.12673611 57.12673611 0 56 C-0.09365006 54.2507128 -0.11744438 52.49763746 -0.11352539 50.74584961 C-0.11344986 49.62476303 -0.11337433 48.50367645 -0.11329651 47.34861755 C-0.10813522 46.1288472 -0.10297394 44.90907684 -0.09765625 43.65234375 C-0.0962413 42.41078018 -0.09482635 41.16921661 -0.09336853 39.89002991 C-0.08870591 36.58394509 -0.07971497 33.27792854 -0.06866455 29.97186279 C-0.05844827 26.6003885 -0.05387045 23.22890717 -0.04882812 19.85742188 C-0.03777395 13.23826225 -0.02101736 6.61913507 0 0 Z " fill="#510A24" transform="translate(111,16)"/>
<path d="M0 0 C2.4375 1.125 2.4375 1.125 4 3 C4.75 6.1875 4.75 6.1875 5 9 C2.69 9 0.38 9 -2 9 C-2 8.01 -2 7.02 -2 6 C-3.32 6 -4.64 6 -6 6 C-6.33 6.66 -6.66 7.32 -7 8 C-7 7.01 -7 6.02 -7 5 C-3.61608307 3.93648325 -2.4195366 3.78557018 0.8125 5.4375 C1.534375 5.953125 2.25625 6.46875 3 7 C2.51294288 4.93597032 2.51294288 4.93597032 1 3 C-2.42243314 1.99917465 -2.42243314 1.99917465 -6 2 C-9.23305313 3.70825068 -9.23305313 3.70825068 -9.9375 6.875 C-10.3173887 10.01982137 -10.3173887 10.01982137 -8.4375 12.125 C-5.92876756 14.1073662 -5.92876756 14.1073662 -2.8125 16.0625 C0 18 0 18 1 21 C0.34 21.99 -0.32 22.98 -1 24 C-3.5 24.375 -3.5 24.375 -6 24 C-6.66 23.01 -7.32 22.02 -8 21 C-8.99 20.67 -9.98 20.34 -11 20 C-10.67 21.65 -10.34 23.3 -10 25 C-9.34 25 -8.68 25 -8 25 C-8 25.66 -8 26.32 -8 27 C-5.03 27 -2.06 27 1 27 C-3 29 -3 29 -6.5625 28.4375 C-10 27 -10 27 -11.9375 24.625 C-13 22 -13 22 -13 18 C-11.02 18 -9.04 18 -7 18 C-6.67 19.32 -6.34 20.64 -6 22 C-4.68 21.67 -3.36 21.34 -2 21 C-2.66085901 17.93798073 -2.66085901 17.93798073 -4.8125 16.90234375 C-5.8953125 16.42474609 -5.8953125 16.42474609 -7 15.9375 C-10.8978186 14.2043628 -10.8978186 14.2043628 -12 12 C-12.56872038 4.9478673 -12.56872038 4.9478673 -10.5 1.5 C-6.96334376 -0.62199374 -4.02426388 -0.66933342 0 0 Z " fill="#4C0820" transform="translate(76,125)"/>
<path d="M0 0 C4.29 0 8.58 0 13 0 C13 1.98 13 3.96 13 6 C12.5875 5.525625 12.175 5.05125 11.75 4.5625 C9.817815 2.83733482 8.51807725 2.43415125 6 2 C6 3.98 6 5.96 6 8 C6.66 8 7.32 8 8 8 C8.33 6.68 8.66 5.36 9 4 C9.33 4 9.66 4 10 4 C10 7.3 10 10.6 10 14 C9.34 13.67 8.68 13.34 8 13 C8 12.01 8 11.02 8 10 C7.34 10 6.68 10 6 10 C6 11.98 6 13.96 6 16 C9.68754757 15.50168276 11.60490662 14.89932357 14 12 C14.042721 13.66611905 14.04063832 15.33382885 14 17 C13 18 13 18 10.05859375 18.09765625 C8.86363281 18.08605469 7.66867188 18.07445312 6.4375 18.0625 C4.64119141 18.04896484 4.64119141 18.04896484 2.80859375 18.03515625 C1.88175781 18.02355469 0.95492187 18.01195312 0 18 C0.33 17.34 0.66 16.68 1 16 C1.23029956 13.62876754 1.41119942 11.25258057 1.5625 8.875 C1.64628906 7.59367188 1.73007813 6.31234375 1.81640625 4.9921875 C1.90728516 3.51105469 1.90728516 3.51105469 2 2 C1.34 2 0.68 2 0 2 C0 1.34 0 0.68 0 0 Z " fill="#030303" transform="translate(122,164)"/>
<path d="M0 0 C1.4540625 0.0309375 1.4540625 0.0309375 2.9375 0.0625 C2.9375 0.3925 2.9375 0.7225 2.9375 1.0625 C1.2875 1.0625 -0.3625 1.0625 -2.0625 1.0625 C-2.0625 7.6625 -2.0625 14.2625 -2.0625 21.0625 C9.4875 21.0625 21.0375 21.0625 32.9375 21.0625 C32.9375 26.0125 32.9375 30.9625 32.9375 36.0625 C32.2775 36.0625 31.6175 36.0625 30.9375 36.0625 C30.9375 31.7725 30.9375 27.4825 30.9375 23.0625 C29.40041382 23.07035522 29.40041382 23.07035522 27.83227539 23.07836914 C24.04354724 23.09641969 20.25482291 23.1079322 16.46606445 23.11743164 C14.82380536 23.12247174 13.18155077 23.12930378 11.53930664 23.13793945 C9.18374521 23.15001926 6.82824291 23.15573139 4.47265625 23.16015625 C3.73410904 23.16531754 2.99556183 23.17047882 2.2346344 23.17579651 C0.46851912 23.1759925 -1.29747146 23.12444719 -3.0625 23.0625 C-4.68450515 21.44049485 -4.1924075 19.64226969 -4.1953125 17.40625 C-4.19660156 16.46652344 -4.19789062 15.52679688 -4.19921875 14.55859375 C-4.19535156 13.56988281 -4.19148438 12.58117187 -4.1875 11.5625 C-4.19136719 10.57378906 -4.19523437 9.58507812 -4.19921875 8.56640625 C-4.19792969 7.62667969 -4.19664063 6.68695313 -4.1953125 5.71875 C-4.19418457 4.85056641 -4.19305664 3.98238281 -4.19189453 3.08789062 C-3.97906272 -0.24352956 -3.41024486 0.06959683 0 0 Z " fill="#560922" transform="translate(35.0625,48.9375)"/>
<path d="M0 0 C2.97 0 5.94 0 9 0 C9 0.66 9 1.32 9 2 C8.34 2 7.68 2 7 2 C7 6.62 7 11.24 7 16 C8.65 16 10.3 16 12 16 C12.33 11.38 12.66 6.76 13 2 C12.34 2 11.68 2 11 2 C11 1.34 11 0.68 11 0 C12.98 0 14.96 0 17 0 C17 0.66 17 1.32 17 2 C16.34 2 15.68 2 15 2 C15.03480469 2.73605469 15.06960937 3.47210938 15.10546875 4.23046875 C15.2238382 8.4974055 15.29570496 12.11288512 13.9375 16.1875 C12 18 12 18 8.5 18.5625 C5 18 5 18 3.29296875 16.35546875 C1.62509537 13.31701664 1.70017988 11.1944837 1.8125 7.75 C1.85310547 6.13351563 1.85310547 6.13351563 1.89453125 4.484375 C1.92933594 3.66453125 1.96414062 2.8446875 2 2 C1.34 2 0.68 2 0 2 C0 1.34 0 0.68 0 0 Z " fill="#010101" transform="translate(35,164)"/>
<path d="M0 0 C2.6875 -0.4375 2.6875 -0.4375 6 0 C8.04775301 2.11124923 9.53480226 4.45859507 11 7 C11.33 5.35 11.66 3.7 12 2 C11.34 2 10.68 2 10 2 C10 1.34 10 0.68 10 0 C11.98 0 13.96 0 16 0 C16 0.66 16 1.32 16 2 C15.34 2 14.68 2 14 2 C14 7.28 14 12.56 14 18 C13.34 18 12.68 18 12 18 C10.55925285 16.217871 9.19489351 14.37339724 7.875 12.5 C7.15054688 11.4790625 6.42609375 10.458125 5.6796875 9.40625 C5.12539062 8.6121875 4.57109375 7.818125 4 7 C3.94600264 8.45792884 3.90720823 9.91642712 3.875 11.375 C3.84019531 12.59316406 3.84019531 12.59316406 3.8046875 13.8359375 C3.78629949 16.21342243 3.78629949 16.21342243 6 18 C4.02 18 2.04 18 0 18 C0.33 17.34 0.66 16.68 1 16 C1.23029956 13.62876754 1.41119942 11.25258057 1.5625 8.875 C1.64628906 7.59367188 1.73007812 6.31234375 1.81640625 4.9921875 C1.90728516 3.51105469 1.90728516 3.51105469 2 2 C1.34 2 0.68 2 0 2 C0 1.34 0 0.68 0 0 Z " fill="#030303" transform="translate(59,164)"/>
<path d="M0 0 C5.28 0 10.56 0 16 0 C15.67 1.32 15.34 2.64 15 4 C13.68 4 12.36 4 11 4 C10.67 10.6 10.34 17.2 10 24 C9.01 24 8.02 24 7 24 C6.67 17.4 6.34 10.8 6 4 C4.02 4 2.04 4 0 4 C0 2.68 0 1.36 0 0 Z " fill="#6B0D30" transform="translate(92,127)"/>
<path d="M0 0 C0.99 0.33 1.98 0.66 3 1 C3.33 7.27 3.66 13.54 4 20 C6.97 20.33 9.94 20.66 13 21 C13 22.65 13 24.3 13 26 C11.58344207 26.0272415 10.16672955 26.04650467 8.75 26.0625 C7.56664062 26.07990234 7.56664062 26.07990234 6.359375 26.09765625 C4 26 4 26 0 25 C0 16.75 0 8.5 0 0 Z " fill="#690D2F" transform="translate(205,126)"/>
<path d="M0 0 C2.64 0 5.28 0 8 0 C7.67 0.99 7.34 1.98 7 3 C8.37168238 5.19038423 8.37168238 5.19038423 10 7 C11.12516085 5.16715557 11.12516085 5.16715557 12 3 C11.67 2.01 11.34 1.02 11 0 C12.65 0 14.3 0 16 0 C14.9936344 2.70944584 13.98384605 5.02423092 12.375 7.4375 C10.70947545 10.54143212 10.61381808 12.52436271 11 16 C11.66 16.66 12.32 17.32 13 18 C9.7 18 6.4 18 3 18 C3.99 17.67 4.98 17.34 6 17 C4.77947449 11.20250383 3.03941639 7.06569398 0 2 C0 1.34 0 0.68 0 0 Z " fill="#030303" transform="translate(225,164)"/>
<path d="M0 0 C4.62 0 9.24 0 14 0 C14 1.32 14 2.64 14 4 C12.35 4.33 10.7 4.66 9 5 C7.73417781 8.86723631 7.8881235 12.73151262 7.9375 16.75 C7.94201172 17.44738281 7.94652344 18.14476562 7.95117188 18.86328125 C7.9628998 20.57555803 7.98083347 22.28779033 8 24 C7.01 24 6.02 24 5 24 C4.67 17.4 4.34 10.8 4 4 C2.35 3.67 0.7 3.34 -1 3 C-0.67 2.01 -0.34 1.02 0 0 Z " fill="#6C0D30" transform="translate(230,127)"/>
<path d="M0 0 C4.62 0 9.24 0 14 0 C14.33 1.65 14.66 3.3 15 5 C14.34 5 13.68 5 13 5 C12.67 4.34 12.34 3.68 12 3 C11.01 2.67 10.02 2.34 9 2 C9.14063135 4.29199177 9.28765943 6.58359186 9.4375 8.875 C9.51871094 10.15117187 9.59992188 11.42734375 9.68359375 12.7421875 C9.79206027 15.88300152 9.79206027 15.88300152 11 18 C8.36 18 5.72 18 3 18 C3.66 17.67 4.32 17.34 5 17 C5 12.05 5 7.1 5 2 C3.35 3.32 1.7 4.64 0 6 C0 4.02 0 2.04 0 0 Z " fill="#030303" transform="translate(203,164)"/>
<path d="M0 0 C2.64 0 5.28 0 8 0 C8 0.66 8 1.32 8 2 C7.34 2 6.68 2 6 2 C6.99 4.31 7.98 6.62 9 9 C11.22189824 6.77810176 11.92598892 4.91517292 13 2 C12.34 2 11.68 2 11 2 C11 1.34 11 0.68 11 0 C12.98 0 14.96 0 17 0 C16.4225 1.11375 15.845 2.2275 15.25 3.375 C12.86265845 8.13263066 10.91235451 13.03601597 9 18 C8.34 18 7.68 18 7 18 C6.0197729 15.56292162 5.04077829 13.12536055 4.0625 10.6875 C3.64581055 9.65206055 3.64581055 9.65206055 3.22070312 8.59570312 C2.07859872 5.74732227 0.97069769 2.91209306 0 0 Z " fill="#030303" transform="translate(98,164)"/>
<path d="M0 0 C2.31 0 4.62 0 7 0 C9.81627358 6.83952155 11.44761232 13.77754385 13 21 C10.24616077 19.62308038 9.48516899 17.63279958 8 15 C7.34 16.32 6.68 17.64 6 19 C4.68 19 3.36 19 2 19 C0.73973202 16.47946405 1.08125555 15.1457902 1.4375 12.375 C1.53933594 11.55773437 1.64117187 10.74046875 1.74609375 9.8984375 C1.82988281 9.27195313 1.91367187 8.64546875 2 8 C3.65 8.33 5.3 8.66 7 9 C6.67 6.69 6.34 4.38 6 2 C4.35 2 2.7 2 1 2 C0.67 2.99 0.34 3.98 0 5 C-0.33 4.34 -0.66 3.68 -1 3 C-0.67 2.01 -0.34 1.02 0 0 Z M3 10 C2.67 12.31 2.34 14.62 2 17 C2.99 17 3.98 17 5 17 C4.67 14.69 4.34 12.38 4 10 C3.67 10 3.34 10 3 10 Z " fill="#510924" transform="translate(260,125)"/>
<path d="M0 0 C2.97 0 5.94 0 9 0 C9 0.66 9 1.32 9 2 C8.34 2 7.68 2 7 2 C7 6.95 7 11.9 7 17 C7.66 17.33 8.32 17.66 9 18 C6.03 18 3.06 18 0 18 C0.66 17.67 1.32 17.34 2 17 C2 12.05 2 7.1 2 2 C1.34 2 0.68 2 0 2 C0 1.34 0 0.68 0 0 Z " fill="#000000" transform="translate(82,164)"/>
<path d="M0 0 C0.66 0 1.32 0 2 0 C2.67286212 2.41509441 3.33846012 4.83180356 4 7.25 C4.19078125 7.93191406 4.3815625 8.61382812 4.578125 9.31640625 C5.49957044 12.70600912 6 15.45778976 6 19 C3.69 19 1.38 19 -1 19 C-1 17.68 -1 16.36 -1 15 C-3.31 15 -5.62 15 -8 15 C-8.33 16.32 -8.66 17.64 -9 19 C-11.31 19 -13.62 19 -16 19 C-15.55170486 17.01853549 -15.09107502 15.03985789 -14.625 13.0625 C-14.24214844 11.40927734 -14.24214844 11.40927734 -13.8515625 9.72265625 C-13.57054687 8.82417969 -13.28953125 7.92570313 -13 7 C-12.34 6.67 -11.68 6.34 -11 6 C-11.875 13.625 -11.875 13.625 -13 17 C-12.01 16.67 -11.02 16.34 -10 16 C-9.67 15.01 -9.34 14.02 -9 13 C-7.72125 12.938125 -6.4425 12.87625 -5.125 12.8125 C-4.40570313 12.77769531 -3.68640625 12.74289063 -2.9453125 12.70703125 C-2.30335937 12.80371094 -1.66140625 12.90039062 -1 13 C-0.01 14.485 -0.01 14.485 1 16 C1.99 16.33 2.98 16.66 4 17 C3.566875 15.53626953 3.566875 15.53626953 3.125 14.04296875 C2.74978981 12.75787385 2.37480138 11.47271419 2 10.1875 C1.443125 8.29064453 1.443125 8.29064453 0.875 6.35546875 C0 3 0 3 0 0 Z " fill="#4B0920" transform="translate(48,134)"/>
<path d="M0 0 C0 1.98 0 3.96 0 6 C-0.4125 5.525625 -0.825 5.05125 -1.25 4.5625 C-3.182185 2.83733482 -4.48192275 2.43415125 -7 2 C-5.6636586 6.00902419 -3.50572968 6.80891895 0 9 C1 10 1 10 1.1875 12.9375 C1 16 1 16 -1 18 C-1.99 17.67 -2.98 17.34 -4 17 C-3.67 15.68 -3.34 14.36 -3 13 C-3.969375 12.360625 -4.93875 11.72125 -5.9375 11.0625 C-9 9 -9 9 -10 8 C-9.6875 4.5 -9.6875 4.5 -9 1 C-6.04335481 -0.4783226 -3.25770263 -0.06032783 0 0 Z " fill="#030303" transform="translate(178,164)"/>
<path d="M0 0 C0.33 0 0.66 0 1 0 C1.00586624 0.68158676 1.01173248 1.36317352 1.01777649 2.06541443 C1.08192899 9.1876761 1.16640484 16.30949504 1.26245117 23.43139648 C1.29722663 26.08605803 1.32367187 28.74042896 1.34643555 31.39526367 C1.38013789 35.22083852 1.43246396 39.0457853 1.48828125 42.87109375 C1.49467117 44.04957382 1.5010611 45.22805389 1.50764465 46.44224548 C1.65037704 54.52185694 2.18921179 61.62705415 7.5 68 C9.90534258 70.16050606 9.90534258 70.16050606 13 71 C13 71.66 13 72.32 13 73 C6.50075322 71.48854726 4.07435241 67.95366472 0.37101746 62.68049622 C-1.25952784 59.49259334 -1.33133415 57.48942936 -1.2487793 53.92456055 C-1.22853195 52.72369308 -1.20828461 51.52282562 -1.18742371 50.28556824 C-1.15006607 48.99894791 -1.11270844 47.71232758 -1.07421875 46.38671875 C-1.04616254 45.0486777 -1.0194746 43.71060731 -0.99409485 42.37251282 C-0.92385586 38.86224866 -0.83510579 35.35269048 -0.74243164 31.84295654 C-0.65104062 28.25687436 -0.57724828 24.67043422 -0.50195312 21.08398438 C-0.35181131 14.05554139 -0.18210124 7.02769348 0 0 Z " fill="#500D26" transform="translate(213,0)"/>
<path d="M0 0 C2 2 2 2 2 5 C1.443125 4.855625 0.88625 4.71125 0.3125 4.5625 C-2.11384195 3.97230872 -4.54906345 3.476571 -7 3 C-7.2236068 5.9254644 -7.2236068 5.9254644 -6 8 C-3.98330173 9.13350534 -3.98330173 9.13350534 -2 10 C-3 12 -3 12 -5 14 C-10.6783115 10.73799127 -10.6783115 10.73799127 -12.0625 7.5625 C-11.98193216 4.2592184 -10.96402993 2.61870658 -9 0 C-5.88135455 -1.55932272 -3.33704665 -0.65549131 0 0 Z " fill="#690F30" transform="translate(77,127)"/>
<path d="M0 0 C2.64 0 5.28 0 8 0 C8 0.66 8 1.32 8 2 C7.34 2 6.68 2 6 2 C6.14063135 4.29199177 6.28765943 6.58359186 6.4375 8.875 C6.51871094 10.15117187 6.59992188 11.42734375 6.68359375 12.7421875 C6.79206027 15.88300152 6.79206027 15.88300152 8 18 C5.36 18 2.72 18 0 18 C0.66 17.67 1.32 17.34 2 17 C2 12.05 2 7.1 2 2 C1.34 2 0.68 2 0 2 C0 1.34 0 0.68 0 0 Z " fill="#020202" transform="translate(187,164)"/>
<path d="M0 0 C2.625 0.25 2.625 0.25 4.26953125 1.328125 C6.3251387 4.24270386 5.98512521 6.73306142 5.9375 10.25 C5.93363281 11.4875 5.92976562 12.725 5.92578125 14 C5.625 17.25 5.625 17.25 3.625 20.25 C1.315 19.92 -0.995 19.59 -3.375 19.25 C-3.40183987 16.27077407 -3.42176037 13.29178705 -3.4375 10.3125 C-3.44587891 9.46236328 -3.45425781 8.61222656 -3.46289062 7.73632812 C-3.46611328 6.92744141 -3.46933594 6.11855469 -3.47265625 5.28515625 C-3.47789307 4.5362915 -3.48312988 3.78742676 -3.48852539 3.01586914 C-3.31047097 0.24626127 -2.75584092 0.29008852 0 0 Z M-1.375 2.25 C-1.375 7.53 -1.375 12.81 -1.375 18.25 C0.275 17.92 1.925 17.59 3.625 17.25 C4.78797973 14.92404054 4.79100691 13.46276769 4.8125 10.875 C4.82667969 10.10414063 4.84085938 9.33328125 4.85546875 8.5390625 C4.60301607 6.03165112 3.87693467 4.41738098 2.625 2.25 C1.305 2.25 -0.015 2.25 -1.375 2.25 Z " fill="#480A21" transform="translate(150.375,126.75)"/>
<path d="M0 0 C0.66 0 1.32 0 2 0 C1.34 2.97 0.68 5.94 0 9 C3.27773504 8.24849977 3.27773504 8.24849977 5 5 C8.67876237 4.59124863 11.03776709 4.36767552 14.1875 6.4375 C15.0846875 7.2109375 15.0846875 7.2109375 16 8 C18.14733927 8.70514846 18.14733927 8.70514846 20 9 C20 9.66 20 10.32 20 11 C17.69 11 15.38 11 13 11 C12.67 9.68 12.34 8.36 12 7 C9.69 7 7.38 7 5 7 C5 8.32 5 9.64 5 11 C2.69 11 0.38 11 -2 11 C-1.34 7.37 -0.68 3.74 0 0 Z " fill="#4B0B21" transform="translate(255,142)"/>
<path d="M0 0 C1.65 0 3.3 0 5 0 C5.12375 0.969375 5.2475 1.93875 5.375 2.9375 C5.58125 3.948125 5.7875 4.95875 6 6 C6.66 6.33 7.32 6.66 8 7 C8 9.64 8 12.28 8 15 C5.10067643 12.60490662 4.49831724 10.68754757 4 7 C2.35 6.67 0.7 6.34 -1 6 C-0.67 4.02 -0.34 2.04 0 0 Z " fill="#6C0D31" transform="translate(41,127)"/>
<path d="M0 0 C6.6 0 13.2 0 20 0 C20 2.31 20 4.62 20 7 C16.04 7 12.08 7 8 7 C8 6.67 8 6.34 8 6 C11.3 6 14.6 6 18 6 C18 4.68 18 3.36 18 2 C12.06 2 6.12 2 0 2 C0 1.34 0 0.68 0 0 Z " fill="#4D0920" transform="translate(2,121)"/>
<path d="M0 0 C0.33 0 0.66 0 1 0 C1 1.98 1 3.96 1 6 C-0.65 6 -2.3 6 -4 6 C-4 12.6 -4 19.2 -4 26 C-4.66 25.67 -5.32 25.34 -6 25 C-6.02895976 21.87501937 -6.04678483 18.7500731 -6.0625 15.625 C-6.07087891 14.73554688 -6.07925781 13.84609375 -6.08789062 12.9296875 C-6.09111328 12.07890625 -6.09433594 11.228125 -6.09765625 10.3515625 C-6.10289307 9.56604004 -6.10812988 8.78051758 -6.11352539 7.97119141 C-6 6 -6 6 -5 4 C-4.34 3.855625 -3.68 3.71125 -3 3.5625 C-2.01 3.2840625 -2.01 3.2840625 -1 3 C-0.67 2.01 -0.34 1.02 0 0 Z " fill="#4F051D" transform="translate(108,127)"/>
<path d="M0 0 C1.134375 0.020625 2.26875 0.04125 3.4375 0.0625 C4.0975 2.7025 4.7575 5.3425 5.4375 8.0625 C4.7775 8.0625 4.1175 8.0625 3.4375 8.0625 C3.1075 6.0825 2.7775 4.1025 2.4375 2.0625 C0.7875 2.0625 -0.8625 2.0625 -2.5625 2.0625 C-2.68625 2.92875 -2.81 3.795 -2.9375 4.6875 C-3.54308121 7.95763853 -4.44556035 10.93506899 -5.5625 14.0625 C-6.2225 14.0625 -6.8825 14.0625 -7.5625 14.0625 C-7.08775225 11.91568469 -6.60758251 9.77006772 -6.125 7.625 C-5.85816406 6.43003906 -5.59132812 5.23507813 -5.31640625 4.00390625 C-4.30955111 0.07560616 -4.30955111 0.07560616 0 0 Z " fill="#4C081F" transform="translate(43.5625,124.9375)"/>
<path d="M0 0 C1.32 0.33 2.64 0.66 4 1 C4.05399736 2.45792884 4.09279177 3.91642712 4.125 5.375 C4.14820313 6.18710938 4.17140625 6.99921875 4.1953125 7.8359375 C4 10 4 10 2 12 C0.68 11.34 -0.64 10.68 -2 10 C-1.125 2.25 -1.125 2.25 0 0 Z M1 2 C0.67 4.31 0.34 6.62 0 9 C0.99 9 1.98 9 3 9 C2.67 6.69 2.34 4.38 2 2 C1.67 2 1.34 2 1 2 Z " fill="#540521" transform="translate(42,133)"/>
<path d="M0 0 C0.33 0 0.66 0 1 0 C1.33 5.28 1.66 10.56 2 16 C3.32 16 4.64 16 6 16 C7.77409808 14.07977297 7.77409808 14.07977297 9 12 C8.125 17.875 8.125 17.875 7 19 C4.69 18.67 2.38 18.34 0 18 C0 12.06 0 6.12 0 0 Z " fill="#540624" transform="translate(147,128)"/>
<path d="M0 0 C0.66 0 1.32 0 2 0 C2 1.65 2 3.3 2 5 C4.97 5.33 7.94 5.66 11 6 C11 7.32 11 8.64 11 10 C9.35 10 7.7 10 6 10 C6 8.68 6 7.36 6 6 C5.195625 6.020625 4.39125 6.04125 3.5625 6.0625 C1 6 1 6 0 5 C-0.04063832 3.33382885 -0.042721 1.66611905 0 0 Z " fill="#610927" transform="translate(8,128)"/>
<path d="M0 0 C0.33 0 0.66 0 1 0 C1.042721 1.66611905 1.04063832 3.33382885 1 5 C0 6 0 6 -2.94140625 6.09765625 C-4.73384766 6.08025391 -4.73384766 6.08025391 -6.5625 6.0625 C-8.35880859 6.04896484 -8.35880859 6.04896484 -10.19140625 6.03515625 C-11.11824219 6.02355469 -12.04507813 6.01195312 -13 6 C-13 5.67 -13 5.34 -13 5 C-11.84371094 4.83564453 -11.84371094 4.83564453 -10.6640625 4.66796875 C-9.66117187 4.50941406 -8.65828125 4.35085937 -7.625 4.1875 C-6.62726563 4.03667969 -5.62953125 3.88585937 -4.6015625 3.73046875 C-1.6712636 3.21227702 -1.6712636 3.21227702 0 0 Z " fill="#0B0B0B" transform="translate(135,176)"/>
<path d="M0 0 C0.33 0 0.66 0 1 0 C1 2.31 1 4.62 1 7 C-0.98 7 -2.96 7 -5 7 C-5 6.34 -5 5.68 -5 5 C-3.68 5 -2.36 5 -1 5 C-0.67 3.35 -0.34 1.7 0 0 Z " fill="#510D25" transform="translate(245,126)"/>
<path d="M0 0 C1.65 0 3.3 0 5 0 C5 1.32 5 2.64 5 4 C2.03 3.505 2.03 3.505 -1 3 C-0.67 2.01 -0.34 1.02 0 0 Z " fill="#6A102F" transform="translate(213,147)"/>
<path d="M0 0 C1.70884005 1.62339805 3.37446717 3.29319053 5 5 C5 5.66 5 6.32 5 7 C3.35 7 1.7 7 0 7 C0 4.69 0 2.38 0 0 Z " fill="#040404" transform="translate(168,175)"/>
<path d="M0 0 C-1 3 -1 3 -3.9375 4.75 C-5.4534375 5.36875 -5.4534375 5.36875 -7 6 C-7.66 5.67 -8.32 5.34 -9 5 C-7.87926138 4.16094435 -6.75325453 3.32892169 -5.625 2.5 C-4.99851563 2.0359375 -4.37203125 1.571875 -3.7265625 1.09375 C-2 0 -2 0 0 0 Z " fill="#510924" transform="translate(251,80)"/>
</svg>
